<svg width="28" height="28" viewBox="0 0 28 28" fill="none" xmlns="http://www.w3.org/2000/svg">
<path fill-rule="evenodd" clip-rule="evenodd" d="M24.48 5.40002C25.2975 6.37195 25.9711 7.45638 26.48 8.62002C27.2213 10.3166 27.6026 12.1485 27.6 14C27.5945 21.4734 21.5434 27.5335 14.07 27.55C12.3311 27.5491 10.609 27.2094 9 26.55C7.85235 26.094 6.775 25.4779 5.8 24.72C1.65298 21.5596 -0.308978 16.2974 0.756714 11.1935C1.82241 6.08949 5.72609 2.05206 10.7913 0.8151C15.8565 -0.421862 21.1817 1.36178 24.48 5.40002ZM18.58 4.19002C17.1642 3.53116 15.6215 3.18985 14.06 3.19002L14.07 3.17002C10.367 3.16726 6.92082 5.0618 4.93897 8.18977C2.95711 11.3177 2.71595 15.243 4.3 18.59C4.75169 18.1155 5.03004 17.5024 5.09 16.85C5.45371 14.3374 7.42741 12.3637 9.94 12C11.3576 11.8715 12.4897 10.7644 12.65 9.35002C13.0137 6.83743 14.9874 4.86373 17.5 4.50002C17.8718 4.44337 18.2348 4.33919 18.58 4.19002ZM5.79 21C5.83 20.9634 5.87 20.9278 5.91001 20.8922L5.91007 20.8922C5.99005 20.8211 6.07002 20.75 6.15 20.67C7.03965 19.8075 7.61071 18.6689 7.77 17.44C7.83458 16.7493 8.143 16.1041 8.64 15.62C9.11825 15.1222 9.76197 14.8163 10.45 14.76C12.9626 14.3963 14.9363 12.4226 15.3 9.91002C15.3433 9.18753 15.6533 8.50686 16.17 8.00002C16.66 7.51187 17.3099 7.21712 18 7.17002C19.1239 7.01538 20.1721 6.51573 21 5.74002C21.9426 6.52209 22.7413 7.46292 23.36 8.52002C23.322 8.57137 23.2784 8.61833 23.23 8.66002C22.7527 9.16222 22.1098 9.47478 21.42 9.54002C18.9043 9.89746 16.9274 11.8743 16.57 14.39C16.4247 15.8094 15.2999 16.93 13.88 17.07C11.3604 17.4309 9.37641 19.4027 9 21.92C8.94618 22.4088 8.77834 22.878 8.51 23.29C7.484 22.6809 6.56508 21.9072 5.79 21ZM11.06 24.44C12.0354 24.7197 13.0453 24.8611 14.06 24.86V24.81C17.4091 24.797 20.5634 23.2338 22.6021 20.5768C24.6409 17.9197 25.3343 14.4683 24.48 11.23C23.7208 11.7668 22.842 12.1101 21.92 12.23C20.504 12.3745 19.3845 13.494 19.24 14.91C18.8752 17.4257 16.8965 19.4004 14.38 19.76C12.964 19.9045 11.8445 21.024 11.7 22.44C11.6106 23.1402 11.3937 23.818 11.06 24.44Z" fill="#696871"/>
</svg>
