<svg width="19" height="30" viewBox="0 0 19 30" fill="none" xmlns="http://www.w3.org/2000/svg">
<path fill-rule="evenodd" clip-rule="evenodd" d="M2.31002 1.69001V22C2.31002 22.2493 2.21099 22.4884 2.0347 22.6647C1.85842 22.841 1.61933 22.94 1.37002 22.94H1.15002C0.630874 22.94 0.210022 22.5192 0.210022 22V1.69001C0.215504 1.17477 0.634755 0.759981 1.15002 0.76001H1.37002C1.88529 0.759981 2.30454 1.17477 2.31002 1.69001ZM13.8404 14.5646C14.0389 14.3756 14.3063 14.2763 14.58 14.29L14.53 14.31C14.821 14.2803 15.1104 14.3795 15.322 14.5815C15.5336 14.7835 15.6462 15.0679 15.63 15.36V20.86C15.63 21.4399 15.1599 21.91 14.58 21.91C14.0001 21.91 13.53 21.4399 13.53 20.86V15.29C13.5297 15.0159 13.6419 14.7537 13.8404 14.5646ZM16.84 17.46C16.84 16.9077 17.2877 16.46 17.84 16.46C18.1294 16.4334 18.416 16.534 18.6253 16.7356C18.8345 16.9372 18.9458 17.2199 18.93 17.51V18.72C18.93 19.2971 18.4622 19.765 17.885 19.765C17.3079 19.765 16.84 19.2971 16.84 18.72V17.46ZM8.94002 25.78V18.55C8.62731 18.7877 8.24266 18.9112 7.85002 18.9C7.48985 18.8911 7.14098 18.7725 6.85002 18.56V25.78C6.85002 26.3571 7.31788 26.825 7.89502 26.825C8.47216 26.825 8.94002 26.3571 8.94002 25.78ZM4.58002 21.29C4.22019 21.2792 3.87186 21.1608 3.58002 20.95V28.2C3.58002 28.7799 4.05012 29.25 4.63002 29.25C5.20992 29.25 5.68002 28.7799 5.68002 28.2V21C5.35347 21.2111 4.96819 21.3127 4.58002 21.29ZM11.26 16.43C10.8834 16.4274 10.5167 16.3087 10.21 16.09V23.36C10.21 23.9399 10.6801 24.41 11.26 24.41C11.8399 24.41 12.31 23.9399 12.31 23.36V16.1C11.9928 16.3363 11.6055 16.4595 11.21 16.45L11.26 16.43ZM4.69002 20.52H4.47002C3.95087 20.52 3.53002 20.0992 3.53002 19.58V4.11001C3.5355 3.59477 3.95475 3.17998 4.47002 3.18001H4.69002C5.20529 3.17998 5.62454 3.59477 5.63002 4.11001V19.6C5.63002 20.1192 5.20917 20.54 4.69002 20.54V20.52ZM7.77002 18.14H8.00002C8.51365 18.14 8.93002 17.7236 8.93002 17.21V6.51001C8.93005 5.99474 8.51526 5.57549 8.00002 5.57001H7.77002C7.52163 5.57 7.28355 5.66935 7.10885 5.84593C6.93415 6.0225 6.83735 6.26163 6.84002 6.51001V17.21C6.84002 17.7236 7.2564 18.14 7.77002 18.14ZM11.31 15.69H11.1C10.5848 15.69 10.1655 15.2752 10.16 14.76V9.00001C10.1434 8.74048 10.2351 8.48568 10.4132 8.29619C10.5913 8.10671 10.84 7.99948 11.1 8.00001H11.32C11.8392 8.00001 12.26 8.42086 12.26 8.94001V14.74C12.2627 14.991 12.1648 15.2327 11.9883 15.4112C11.8117 15.5896 11.5711 15.69 11.32 15.69H11.31ZM14.41 13.54H14.63H14.64C15.1553 13.5345 15.5701 13.1153 15.57 12.6V11.11C15.5645 10.5948 15.1453 10.18 14.63 10.18H14.41C13.8948 10.18 13.4755 10.5948 13.47 11.11V12.6C13.47 13.1192 13.8909 13.54 14.41 13.54Z" fill="#696871"/>
</svg>
