<svg width="28" height="24" viewBox="0 0 28 24" fill="none" xmlns="http://www.w3.org/2000/svg">
<path fill-rule="evenodd" clip-rule="evenodd" d="M0.459927 10.57C1.97801 4.46836 7.45725 0.185303 13.7449 0.185303C20.0326 0.185303 25.5118 4.46836 27.0299 10.57H25.8299C23.8056 10.5402 21.8228 11.1452 20.1599 12.3C20.064 12.3695 19.9638 12.433 19.8599 12.49H19.7199C19.6161 12.433 19.5159 12.3695 19.4199 12.3C15.9884 9.99254 11.5014 9.99254 8.06993 12.3C7.97396 12.3695 7.87377 12.433 7.76993 12.49H7.62993C7.52609 12.433 7.42589 12.3695 7.32993 12.3C5.66706 11.1452 3.68424 10.5402 1.65993 10.57H0.459927ZM23.6699 16.84C24.2859 16.3603 25.0494 16.1093 25.8299 16.13H27.4399V12.92H25.8299C24.4552 12.9034 23.1118 13.3313 21.9999 14.14C20.7156 15.0869 18.9643 15.0869 17.6799 14.14C15.3449 12.5146 12.2449 12.5146 9.90993 14.14C8.62558 15.0869 6.87427 15.0869 5.58993 14.14C4.46433 13.321 3.10172 12.8925 1.70993 12.92H0.0499268V16.13H1.65993C2.44044 16.1093 3.20392 16.3603 3.81993 16.84C6.15087 18.4666 9.24898 18.4666 11.5799 16.84C12.1967 16.3618 12.9597 16.111 13.7399 16.13C14.5207 16.1076 15.2847 16.3588 15.8999 16.84C18.2349 18.4655 21.3349 18.4655 23.6699 16.84ZM25.8299 21.87C25.0494 21.8493 24.2859 22.1003 23.6699 22.58C21.3349 24.2055 18.2349 24.2055 15.8999 22.58C15.2847 22.0988 14.5207 21.8476 13.7399 21.87C12.9597 21.851 12.1967 22.1018 11.5799 22.58C9.24898 24.2066 6.15087 24.2066 3.81993 22.58C3.20392 22.1003 2.44044 21.8493 1.65993 21.87H0.0499268V18.66H1.70993C3.10172 18.6325 4.46433 19.061 5.58993 19.88C6.87427 20.8269 8.62558 20.8269 9.90993 19.88C12.2449 18.2546 15.3449 18.2546 17.6799 19.88C18.9643 20.8269 20.7156 20.8269 21.9999 19.88C23.1118 19.0713 24.4552 18.6434 25.8299 18.66H27.4399V21.87H25.8299Z" fill="#696871"/>
</svg>
