<svg width="31" height="30" viewBox="0 0 31 30" fill="none" xmlns="http://www.w3.org/2000/svg">
<path fill-rule="evenodd" clip-rule="evenodd" d="M30.16 10.11C30.1602 6.03639 27.6602 2.38026 23.8641 0.902517C20.068 -0.575227 15.754 0.42839 13 3.42999H0.52002V29.77H26.87V17.46C28.9617 15.5891 30.1581 12.9163 30.16 10.11ZM25.09 10.11C25.0941 12.0604 23.9223 13.821 22.1215 14.5702C20.3207 15.3194 18.2459 14.9095 16.8653 13.5318C15.4847 12.1541 15.0705 10.0801 15.816 8.27778C16.5614 6.47544 18.3196 5.3 20.27 5.29999C22.9281 5.29999 25.0845 7.45189 25.09 10.11ZM5.59002 24.7H21.8V19.87C21.2943 19.9538 20.7827 19.9973 20.27 20C14.8102 19.9945 10.3855 15.5698 10.38 10.11C10.3844 9.57005 10.4346 9.03145 10.53 8.49999H5.59002V24.7Z" fill="#696871"/>
</svg>
